<?xml version="1.0" encoding="UTF-8" standalone="no"?>
<!-- Generator: Adobe Illustrator 18.1.1, SVG Export Plug-In . SVG Version: 6.00 Build 0)  -->

<svg
   version="1.1"
   id="Layer_1"
   x="0px"
   y="0px"
   width="32px"
   height="32px"
   viewBox="0 0 32 32"
   enable-background="new 0 0 32 32"
   xml:space="preserve"
   sodipodi:docname="social-1_logo-email.svg"
   inkscape:version="1.1 (c68e22c387, 2021-05-23)"
   xmlns:inkscape="http://www.inkscape.org/namespaces/inkscape"
   xmlns:sodipodi="http://sodipodi.sourceforge.net/DTD/sodipodi-0.dtd"
   xmlns="http://www.w3.org/2000/svg"
   xmlns:svg="http://www.w3.org/2000/svg"><g
   aria-label="@"
   transform="matrix(2.0289616,0,0,2.0289616,1.7741988,-7.6388594)"
   id="text3695"
   style="font-size:16px;line-height:1.25;font-family:'Perpetua Titling MT';-inkscape-font-specification:'Perpetua Titling MT';white-space:pre;shape-inside:url(#rect3697);fill:#dcdcdc;fill-opacity:1"><path
     d="m 7.7910156,14.657419 c -0.3020833,0.427083 -0.6276042,0.75 -0.9765625,0.96875 -0.34375,0.21875 -0.6640625,0.328125 -0.9609375,0.328125 -0.625,0 -1.1510417,-0.283854 -1.578125,-0.851562 -0.515625,-0.6875 -0.7734375,-1.572917 -0.7734375,-2.65625 0,-0.875 0.1848958,-1.726563 0.5546875,-2.5546878 0.3697917,-0.8333333 0.8072917,-1.4453125 1.3125,-1.8359375 0.5052083,-0.3958333 1,-0.59375 1.484375,-0.59375 0.3541667,0 0.7005208,0.1197917 1.0390625,0.359375 0.3385417,0.2395833 0.6302083,0.5989583 0.875,1.078125 L 8.9785156,7.6886692 H 10.134766 L 9.2050781,12.930857 c -0.125,0.723958 -0.1875,1.127604 -0.1875,1.210937 0,0.151042 0.044271,0.276042 0.1328125,0.375 0.088542,0.09375 0.1927083,0.140625 0.3125,0.140625 0.2291667,0 0.5546874,-0.182292 0.9765624,-0.546875 0.421875,-0.364583 0.776042,-0.893229 1.0625,-1.585937 0.286459,-0.697917 0.429688,-1.434896 0.429688,-2.210938 0,-0.9270832 -0.200521,-1.7656248 -0.601563,-2.5156248 -0.401041,-0.75 -0.955729,-1.3359375 -1.6640624,-1.7578125 -0.703125,-0.421875 -1.46875,-0.6328125 -2.296875,-0.6328125 -0.984375,0 -1.875,0.265625 -2.671875,0.796875 -0.796875,0.53125 -1.4453125,1.3229167 -1.9453125,2.375 -0.4947917,1.0468752 -0.7421875,2.2447918 -0.7421875,3.5937498 0,1.270833 0.2239583,2.351563 0.671875,3.242188 0.4479167,0.890625 1.0859375,1.567708 1.9140625,2.03125 0.8333333,0.463541 1.8203125,0.695312 2.9609375,0.695312 1.0260417,0 1.9270835,-0.216146 2.7031254,-0.648437 0.78125,-0.427083 1.800425,-1.726696 2.206675,-2.440238 l 0.730825,0.7293 c -0.255209,0.630209 -0.677084,1.231771 -1.265625,1.804688 -0.583333,0.578125 -1.229167,1.007812 -1.9375004,1.289062 -0.7083333,0.28125 -1.5234375,0.421875 -2.4453125,0.421875 -1.3489583,0 -2.4947917,-0.270833 -3.4375,-0.8125 -0.9427083,-0.541667 -1.6875,-1.341146 -2.234375,-2.398437 -0.5416667,-1.052083 -0.8125,-2.320313 -0.8125,-3.804688 0,-1.578125 0.2994792,-3.0078123 0.8984375,-4.2890623 0.5989583,-1.28125 1.3541667,-2.2213542 2.265625,-2.8203125 0.9166667,-0.6041667 1.984375,-0.90625 3.203125,-0.90625 1.0208333,0 1.9375001,0.25 2.7500004,0.75 0.817708,0.5 1.471354,1.2265625 1.960937,2.1796875 0.494792,0.9479167 0.742188,1.9973958 0.742188,3.1484373 0,1.5625 -0.453125,2.934896 -1.359375,4.117188 -0.765625,1 -1.5989588,1.5 -2.5000004,1.5 -0.4270833,0 -0.7317708,-0.104167 -0.9140625,-0.3125 C 7.9342448,15.436065 7.8274739,15.105336 7.7910156,14.657419 Z M 4.6894531,12.540232 c 0,0.71875 0.140625,1.276042 0.421875,1.671875 0.2864583,0.390625 0.6067708,0.585937 0.9609375,0.585937 0.3020833,0 0.6354167,-0.151042 1,-0.453125 0.3645833,-0.307291 0.6770833,-0.783854 0.9375,-1.429687 0.2604167,-0.645833 0.390625,-1.325521 0.390625,-2.039063 0,-0.729167 -0.1458333,-1.2864581 -0.4375,-1.6718748 -0.2916667,-0.3854167 -0.6432292,-0.578125 -1.0546875,-0.578125 -0.3177083,0 -0.6380208,0.1354167 -0.9609375,0.40625 -0.3177083,0.2708333 -0.6067708,0.7552083 -0.8671875,1.4531248 -0.2604167,0.697917 -0.390625,1.382813 -0.390625,2.054688 z"
     id="path5797"
     style="fill:#dcdcdc;fill-opacity:1"
     sodipodi:nodetypes="ccscsccssccccscsscsscsscsscsccccssscsscsccscsccscscsssscss" /></g><defs
   id="defs7"><rect
     x="0.36993052"
     y="0.4932407"
     width="31.074164"
     height="31.074164"
     id="rect3697" /></defs><sodipodi:namedview
   id="namedview5"
   pagecolor="#ffffff"
   bordercolor="#999999"
   borderopacity="1"
   inkscape:pageshadow="0"
   inkscape:pageopacity="0"
   inkscape:pagecheckerboard="0"
   showgrid="false"
   inkscape:zoom="8.1096309"
   inkscape:cx="15.968668"
   inkscape:cy="15.968668"
   inkscape:window-width="1280"
   inkscape:window-height="961"
   inkscape:window-x="-8"
   inkscape:window-y="-8"
   inkscape:window-maximized="1"
   inkscape:current-layer="Layer_1"
   inkscape:snap-to-guides="false"
   inkscape:snap-grids="false"
   inkscape:snap-others="false"
   inkscape:object-nodes="false"
   inkscape:snap-nodes="false" />

</svg>
