<?xml version="1.0" encoding="UTF-8" standalone="no"?>
<!-- Generator: Adobe Illustrator 18.1.1, SVG Export Plug-In . SVG Version: 6.00 Build 0)  -->

<svg
   version="1.1"
   id="Layer_1"
   x="0px"
   y="0px"
   width="32px"
   height="32px"
   viewBox="0 0 32 32"
   enable-background="new 0 0 32 32"
   xml:space="preserve"
   sodipodi:docname="social-1_logo-codepen.svg"
   inkscape:version="1.1 (c68e22c387, 2021-05-23)"
   xmlns:inkscape="http://www.inkscape.org/namespaces/inkscape"
   xmlns:sodipodi="http://sodipodi.sourceforge.net/DTD/sodipodi-0.dtd"
   xmlns="http://www.w3.org/2000/svg"
   xmlns:svg="http://www.w3.org/2000/svg"><defs
   id="defs7" /><sodipodi:namedview
   id="namedview5"
   pagecolor="#ffffff"
   bordercolor="#999999"
   borderopacity="1"
   inkscape:pageshadow="0"
   inkscape:pageopacity="0"
   inkscape:pagecheckerboard="0"
   showgrid="false"
   inkscape:zoom="22.9375"
   inkscape:cx="15.978202"
   inkscape:cy="16.021798"
   inkscape:window-width="1280"
   inkscape:window-height="961"
   inkscape:window-x="-8"
   inkscape:window-y="-8"
   inkscape:window-maximized="1"
   inkscape:current-layer="Layer_1" />
<path
   fill="#444444"
   d="M32,10.9C32,10.9,32,10.9,32,10.9c0-0.1,0-0.1,0-0.2c0,0,0,0,0-0.1c0,0,0-0.1,0-0.1c0,0,0,0,0-0.1  c0,0,0-0.1,0-0.1c0,0,0,0,0-0.1c0,0,0-0.1-0.1-0.1c0,0,0,0,0-0.1c0,0,0-0.1-0.1-0.1c0,0,0,0-0.1-0.1c0,0-0.1,0-0.1-0.1  c0,0,0,0-0.1,0c0,0,0,0,0,0L16.8,0.2c-0.5-0.3-1.1-0.3-1.5,0L0.6,10c0,0,0,0,0,0c0,0,0,0-0.1,0c0,0-0.1,0-0.1,0.1c0,0,0,0-0.1,0.1  c0,0,0,0-0.1,0.1c0,0,0,0,0,0.1c0,0,0,0.1-0.1,0.1c0,0,0,0,0,0.1c0,0,0,0.1,0,0.1c0,0,0,0,0,0.1c0,0,0,0.1,0,0.1c0,0,0,0,0,0.1  c0,0,0,0.1,0,0.1c0,0,0,0,0,0.1c0,0.1,0,0.1,0,0.2v9.7c0,0.1,0,0.1,0,0.2c0,0,0,0,0,0.1c0,0,0,0.1,0,0.1c0,0,0,0,0,0.1  c0,0,0,0.1,0,0.1c0,0,0,0,0,0.1c0,0,0,0.1,0,0.1c0,0,0,0,0,0.1c0,0,0,0.1,0.1,0.1c0,0,0,0,0,0.1c0,0,0,0.1,0.1,0.1c0,0,0,0,0.1,0.1  c0,0,0.1,0,0.1,0.1c0,0,0,0,0.1,0c0,0,0,0,0,0l14.6,9.8c0.2,0.2,0.5,0.2,0.8,0.2c0.3,0,0.5-0.1,0.8-0.2L31.4,22c0,0,0,0,0,0  c0,0,0,0,0.1,0c0,0,0.1,0,0.1-0.1c0,0,0,0,0.1-0.1c0,0,0,0,0.1-0.1c0,0,0,0,0-0.1c0,0,0-0.1,0.1-0.1c0,0,0,0,0-0.1c0,0,0-0.1,0-0.1  c0,0,0,0,0-0.1c0,0,0-0.1,0-0.1c0,0,0,0,0-0.1c0,0,0-0.1,0-0.1c0,0,0,0,0-0.1c0-0.1,0-0.1,0-0.2v-9.7C32,11.1,32,11,32,10.9z   M17.4,3.9l10.8,7.2l-4.8,3.2l-6-4V3.9z M14.6,3.9v6.4l-6,4l-4.8-3.2L14.6,3.9z M2.8,13.7L6.2,16l-3.4,2.3V13.7z M14.6,28.1  L3.9,20.9l4.8-3.2l6,4V28.1z M16,19.3L11.1,16l4.9-3.3l4.9,3.3L16,19.3z M17.4,28.1v-6.4l6-4l4.8,3.2L17.4,28.1z M29.2,18.3L25.8,16  l3.4-2.3V18.3z"
   id="path2"
   style="fill:#ffffff;fill-opacity:1" />
</svg>
