<?xml version="1.0" encoding="UTF-8" standalone="no"?>
<!-- Generator: Adobe Illustrator 18.1.1, SVG Export Plug-In . SVG Version: 6.00 Build 0)  -->

<svg
   version="1.1"
   id="Layer_1"
   x="0px"
   y="0px"
   width="32px"
   height="32px"
   viewBox="0 0 32 32"
   enable-background="new 0 0 32 32"
   xml:space="preserve"
   sodipodi:docname="social-1_logo-mobile.svg"
   inkscape:version="1.1 (c68e22c387, 2021-05-23)"
   xmlns:inkscape="http://www.inkscape.org/namespaces/inkscape"
   xmlns:sodipodi="http://sodipodi.sourceforge.net/DTD/sodipodi-0.dtd"
   xmlns="http://www.w3.org/2000/svg"
   xmlns:svg="http://www.w3.org/2000/svg"><defs
   id="defs7"><rect
     x="0.36993052"
     y="0.4932407"
     width="31.074164"
     height="31.074164"
     id="rect3697" /></defs><sodipodi:namedview
   id="namedview5"
   pagecolor="#ffffff"
   bordercolor="#999999"
   borderopacity="1"
   inkscape:pageshadow="0"
   inkscape:pageopacity="0"
   inkscape:pagecheckerboard="0"
   showgrid="false"
   inkscape:zoom="8.1096309"
   inkscape:cx="15.968668"
   inkscape:cy="15.968668"
   inkscape:window-width="1280"
   inkscape:window-height="961"
   inkscape:window-x="-8"
   inkscape:window-y="-8"
   inkscape:window-maximized="1"
   inkscape:current-layer="Layer_1"
   inkscape:snap-others="false"
   inkscape:object-nodes="false"
   inkscape:snap-nodes="false" />

<path
   style="color:#000000;fill:#dcdcdc;stroke-linecap:round;stroke-linejoin:round;-inkscape-stroke:none;fill-opacity:1;stroke:none"
   d="m 28.148437,4.0097656 a 2.6256101,2.6256101 0 0 0 -3.013671,2.1699219 c 0,0 -0.765147,4.5846875 -3.603516,9.1914065 -2.838369,4.606719 -7.351728,8.990929 -15.6640625,9.125 A 2.6256101,2.6256101 0 0 0 3.2851563,27.164062 2.6256101,2.6256101 0 0 0 5.953125,29.748047 C 16.170096,29.583257 22.564267,23.706373 26.001953,18.126953 29.439639,12.547534 30.318359,7.0214844 30.318359,7.0214844 A 2.6256101,2.6256101 0 0 0 28.148437,4.0097656 Z"
   id="path958" /><g
   id="rect1098"
   transform="rotate(30)"
   style="fill:#dcdcdc;fill-opacity:1;stroke:none"><path
     style="color:#000000;fill:#dcdcdc;stroke-width:5.60172;stroke-linecap:round;stroke-linejoin:round;-inkscape-stroke:none;fill-opacity:1;stroke:none"
     d="m 23.771482,-9.0461206 h 2.869265 v 4.2507629 h -2.869265 z"
     id="path1396" /><path
     style="color:#000000;fill:#dcdcdc;stroke-linecap:round;stroke-linejoin:round;-inkscape-stroke:none;fill-opacity:1;stroke:none"
     d="m 23.771484,-11.847656 a 2.80114,2.80114 0 0 0 -2.800781,2.800781 v 4.2519531 a 2.80114,2.80114 0 0 0 2.800781,2.8007813 h 2.869141 a 2.80114,2.80114 0 0 0 2.800781,-2.8007813 V -9.046875 a 2.80114,2.80114 0 0 0 -2.800781,-2.800781 z"
     id="path1398" /></g><g
   id="rect1182"
   transform="rotate(75)"
   style="fill:#dcdcdc;fill-opacity:1;stroke:none"><path
     style="color:#000000;fill:#dcdcdc;stroke-width:5.82317;stroke-linecap:round;stroke-linejoin:round;-inkscape-stroke:none;fill-opacity:1;stroke:none"
     d="m 24.152544,-2.3111711 h 2.982691 v 4.4188014 h -2.982691 z"
     id="path1404" /><path
     style="color:#000000;fill:#dcdcdc;stroke-linecap:round;stroke-linejoin:round;-inkscape-stroke:none;fill-opacity:1;stroke:none"
     d="m 24.152344,-5.2226562 a 2.9118763,2.9118763 0 0 0 -2.91211,2.9121093 v 4.4179688 a 2.9118763,2.9118763 0 0 0 2.91211,2.9121093 h 2.982422 a 2.9118763,2.9118763 0 0 0 2.912109,-2.9121093 v -4.4179688 a 2.9118763,2.9118763 0 0 0 -2.912109,-2.9121093 z"
     id="path1406" /></g></svg>
